<svg xmlns="http://www.w3.org/2000/svg" viewBox="0 0 49.403 50.65">
  <defs>
    <filter id="Qnqbt31SP9DYa" x="0" y="3.662" width="49.403" height="46.987" filterUnits="userSpaceOnUse">
      <feOffset dy="3" input="SourceAlpha"/>
      <feGaussianBlur stdDeviation="3" result="blur"/>
      <feFlood flood-color="#ff8a83" flood-opacity=".4"/>
      <feComposite operator="in" in2="blur"/>
      <feComposite in="SourceGraphic"/>
    </filter>
  </defs>
  <g data-name="Group 365" transform="translate(-443.455 -58)">
    <rect data-name="Rectangle 264" width="48" height="48" rx="2" transform="translate(444.312 58)" fill="#fedddb"/>
    <g transform="translate(443.45 58)" filter="url(#Qnqbt31SP9DYa)">
      <path data-name="Path 75" d="M37.987 9.66H11.416A2.416 2.416 0 009 12.076v20.532a2.416 2.416 0 002.416 2.416h2.416v2.416a1.208 1.208 0 002.416 0v-2.416h16.908v2.416a1.208 1.208 0 002.416 0v-2.416h2.416a2.416 2.416 0 002.412-2.416V12.076a2.416 2.416 0 00-2.413-2.416zm-1.208 14.494h-4.364a5.435 5.435 0 110-2.416h4.365a1.208 1.208 0 010 2.416zm-6.643-1.208a3.02 3.02 0 11-3.02-3.02 3.02 3.02 0 013.021 3.02z" fill="#ff8a83"/>
    </g>
  </g>
</svg>
