<svg xmlns="http://www.w3.org/2000/svg" viewBox="0 0 49.403 48">
  <defs>
    <filter id="amDr7sEG9mLTa" x="0" y="6.785" width="49.403" height="40.429" filterUnits="userSpaceOnUse">
      <feOffset dy="3" input="SourceAlpha"/>
      <feGaussianBlur stdDeviation="3" result="blur"/>
      <feFlood flood-color="#ff8a83" flood-opacity=".4"/>
      <feComposite operator="in" in2="blur"/>
      <feComposite in="SourceGraphic"/>
    </filter>
  </defs>
  <g data-name="Group 365" transform="translate(-443.455 -58)">
    <rect data-name="Rectangle 264" width="48" height="48" rx="2" transform="translate(444.312 58)" fill="#fedddb"/>
    <g transform="translate(443.45 58)" filter="url(#amDr7sEG9mLTa)">
      <path data-name="Path 76" d="M37.864 19.92a.561.561 0 00-.865-.087L26.43 30.4a1.121 1.121 0 01-1.581-1.585L37.84 15.826a1.122 1.122 0 10-1.587-1.587l-1.876 1.877A15.706 15.706 0 009.895 33.711a2.255 2.255 0 002.119 1.507h25.381a2.243 2.243 0 002.118-1.5 15.739 15.739 0 00-1.65-13.8zM14.815 30.51a1.121 1.121 0 01-.876 1.322 1.106 1.106 0 01-.224.022 1.121 1.121 0 01-1.1-.9 12.344 12.344 0 0114.276-14.606 1.122 1.122 0 11-.4 2.208A10.1 10.1 0 0014.815 30.51z" fill="#ff8a83"/>
    </g>
  </g>
</svg>
