<svg xmlns="http://www.w3.org/2000/svg" viewBox="0 0 734.847 734.847">
  <g transform="rotate(-14.98 -4892.831 17544.153)">
    <rect data-name="Rectangle 208" width="600" height="600" rx="100" transform="translate(4336 2017)" fill="#ffe6e2" opacity=".35"/>
    <path data-name="Path 57" d="M4754.338 2252.778a134.268 134.268 0 0116.526 64.733 134.859 134.859 0 01-67.092 116.63l41.212-119.154c7.7-19.25 10.261-34.642 10.261-48.329a103.585 103.585 0 00-.907-13.88m-99.808 1.474c8.123-.427 15.443-1.282 15.443-1.282 7.27-.861 6.413-11.546-.861-11.12 0 0-21.856 1.715-35.965 1.715-13.258 0-35.536-1.715-35.536-1.715-7.277-.426-8.13 10.69-.856 11.12 0 0 6.883.854 14.153 1.282l21.021 57.6-29.533 88.559-49.134-146.16c8.13-.427 15.441-1.282 15.441-1.282 7.266-.861 6.408-11.546-.862-11.12 0 0-21.851 1.715-35.962 1.715-2.532 0-5.516-.062-8.684-.164a134.778 134.778 0 01112.739-60.816 134.425 134.425 0 0191.117 35.426c-.581-.035-1.148-.108-1.747-.108-13.255 0-22.66 11.546-22.66 23.948 0 11.12 6.416 20.528 13.255 31.647 5.131 8.987 11.125 20.531 11.125 37.213 0 11.547-4.442 24.95-10.267 43.62l-13.463 44.968zm-18.6 198.206a134.887 134.887 0 01-38.12-5.5l40.49-117.641 41.477 113.631a12.658 12.658 0 00.966 1.86 134.649 134.649 0 01-44.808 7.65m-134.932-134.943a134.391 134.391 0 0111.684-54.913l64.366 176.35a134.94 134.94 0 01-76.05-121.437m134.931-150.074c-82.753 0-150.077 67.323-150.077 150.074s67.324 150.086 150.077 150.086 150.077-67.331 150.077-150.086-67.325-150.074-150.077-150.074" fill="#fc573b"/>
  </g>
</svg>
