<svg xmlns="http://www.w3.org/2000/svg" viewBox="0 0 30.258 311.672">
  <path data-name="Path 74" d="M1.922 283.43a1.583 1.583 0 01.2-.867 1.229 1.229 0 01.715-.457 5.612 5.612 0 011.5-.152 5.612 5.612 0 011.5.152 1.171 1.171 0 01.7.457 1.662 1.662 0 01.188.867v1.312l22.009 2.367a1.807 1.807 0 01.914.328 1.467 1.467 0 01.469.844 7.546 7.546 0 01.141 1.664 5.248 5.248 0 01-.352 2.238 1.961 1.961 0 01-1.172.973l-11.039 3.747 11.039 3.8a1.952 1.952 0 011.172.984 5.409 5.409 0 01.352 2.274 7.38 7.38 0 01-.141 1.652 1.4 1.4 0 01-.469.82 1.883 1.883 0 01-.914.316l-22.008 2.274v1.172a1.662 1.662 0 01-.184.867 1.171 1.171 0 01-.7.457 5.612 5.612 0 01-1.5.152 5.612 5.612 0 01-1.5-.152 1.229 1.229 0 01-.715-.457 1.583 1.583 0 01-.2-.867v-9.234a1.583 1.583 0 01.2-.867 1.229 1.229 0 01.715-.457 5.612 5.612 0 011.5-.152 5.612 5.612 0 011.5.152 1.171 1.171 0 01.7.457 1.662 1.662 0 01.188.867v2.742l13.684-1.242-10.031-3.422a1.4 1.4 0 01-.82-.633 3.222 3.222 0 01-.281-1.57 4.609 4.609 0 01.223-1.688 1.083 1.083 0 01.715-.656l10.2-3.445-13.687-1.266v2.414a1.662 1.662 0 01-.187.867 1.171 1.171 0 01-.7.457 5.612 5.612 0 01-1.5.152 5.612 5.612 0 01-1.5-.152 1.229 1.229 0 01-.715-.457 1.583 1.583 0 01-.2-.867zm0-27.141a1.583 1.583 0 01.2-.867 1.229 1.229 0 01.715-.457 5.612 5.612 0 011.5-.152 5.612 5.612 0 011.5.152 1.171 1.171 0 01.7.457 1.662 1.662 0 01.188.867v1.336h18.217v-1.336a1.583 1.583 0 01.2-.867 1.229 1.229 0 01.715-.457 5.612 5.612 0 011.5-.152 5.612 5.612 0 011.5.152 1.171 1.171 0 01.7.457 1.662 1.662 0 01.185.867v8.766a1.662 1.662 0 01-.187.867 1.171 1.171 0 01-.7.457 5.612 5.612 0 01-1.5.152 5.612 5.612 0 01-1.5-.152 1.229 1.229 0 01-.715-.457 1.583 1.583 0 01-.2-.867v-1.57h-7.008v9.093h7.01v-1.575a1.583 1.583 0 01.2-.867 1.229 1.229 0 01.715-.457 5.612 5.612 0 011.5-.152 5.612 5.612 0 011.5.152 1.171 1.171 0 01.7.457 1.662 1.662 0 01.185.867v8.77a1.662 1.662 0 01-.187.867 1.171 1.171 0 01-.7.457 5.612 5.612 0 01-1.5.152 5.612 5.612 0 01-1.5-.152 1.229 1.229 0 01-.715-.457 1.583 1.583 0 01-.2-.867v-1.336H6.726v1.336a1.662 1.662 0 01-.187.867 1.171 1.171 0 01-.7.457 5.612 5.612 0 01-1.5.152 5.612 5.612 0 01-1.5-.152 1.229 1.229 0 01-.715-.457 1.583 1.583 0 01-.2-.867v-8.77a1.583 1.583 0 01.2-.867 1.229 1.229 0 01.715-.457 5.612 5.612 0 011.5-.152 5.612 5.612 0 011.5.152 1.171 1.171 0 01.7.457 1.662 1.662 0 01.188.867v1.57h6.164v-9.094H6.727v1.57a1.662 1.662 0 01-.187.867 1.171 1.171 0 01-.7.457 5.612 5.612 0 01-1.5.152 5.612 5.612 0 01-1.5-.152 1.229 1.229 0 01-.715-.457 1.583 1.583 0 01-.2-.867zm-.516-17.039a12.976 12.976 0 011.746-6.773 11.655 11.655 0 015.016-4.535 17.17 17.17 0 017.652-1.605 17.17 17.17 0 017.652 1.604 11.73 11.73 0 015.027 4.535 12.909 12.909 0 011.759 6.774 12.909 12.909 0 01-1.758 6.773 11.73 11.73 0 01-5.028 4.535 17.17 17.17 0 01-7.652 1.605 17.17 17.17 0 01-7.652-1.605 11.655 11.655 0 01-5.016-4.535 12.976 12.976 0 01-1.746-6.773zm5.32 0a5.708 5.708 0 002.344 4.945q2.344 1.687 6.75 1.687t6.762-1.687a5.7 5.7 0 002.36-4.945 5.7 5.7 0 00-2.36-4.947q-2.355-1.688-6.762-1.688t-6.75 1.688a5.708 5.708 0 00-2.344 4.947zm-4.8-59.508a2.856 2.856 0 01.363-1.523 2.037 2.037 0 011.16-.844l21.492-6.8v-2.039a1.662 1.662 0 01.188-.867 1.171 1.171 0 01.7-.457 5.612 5.612 0 011.5-.152 5.612 5.612 0 011.5.152 1.229 1.229 0 01.715.457 1.583 1.583 0 01.2.867v9.937a1.583 1.583 0 01-.2.867 1.229 1.229 0 01-.715.457 5.612 5.612 0 01-1.5.152 5.612 5.612 0 01-1.5-.152 1.171 1.171 0 01-.7-.457 1.662 1.662 0 01-.187-.867v-2.016l-3.4 1.055v8.531l3.4 1.06v-1.734a1.662 1.662 0 01.188-.867 1.171 1.171 0 01.7-.457 5.612 5.612 0 011.5-.152 5.612 5.612 0 011.5.152 1.229 1.229 0 01.712.458 1.583 1.583 0 01.2.867v9.469a1.583 1.583 0 01-.2.867 1.229 1.229 0 01-.715.457 5.612 5.612 0 01-1.5.152 5.612 5.612 0 01-1.5-.152 1.171 1.171 0 01-.7-.457 1.662 1.662 0 01-.187-.867v-1.969l-18.211-5.93v3.914a1.583 1.583 0 01-.2.867 1.229 1.229 0 01-.715.457 5.612 5.612 0 01-1.5.152 5.612 5.612 0 01-1.5-.152 1.171 1.171 0 01-.7-.457 1.662 1.662 0 01-.187-.867zm4.8 2.062l10.008 2.883v-5.836l-10.008 2.812zm-4.8-29.742q0-4.945 2.18-7.594a7.724 7.724 0 016.328-2.648q5.414 0 6.82 5.812a4.61 4.61 0 011.453-2.016 12.752 12.752 0 011.324-.9q.691-.41 1.746-.949 1.125-.563 1.617-.867a4.561 4.561 0 001.16-.938 1.614 1.614 0 00.388-1.059v-.445a1.583 1.583 0 01.2-.867 1.229 1.229 0 01.715-.457 5.612 5.612 0 011.5-.152 5.612 5.612 0 011.5.152 1.171 1.171 0 01.7.457 1.662 1.662 0 01.188.867v2.273a5.4 5.4 0 01-.75 3 6.812 6.812 0 01-2.508 2.109q-.82.469-2.25 1.125-1.078.469-1.863.891a16.464 16.464 0 00-1.535.937 4.527 4.527 0 00-1.453 1.617 4.723 4.723 0 00-.445 2.133v1.5h6v-2.273a1.583 1.583 0 01.2-.867 1.229 1.229 0 01.715-.457 5.612 5.612 0 011.5-.152 5.612 5.612 0 011.5.152 1.171 1.171 0 01.7.457 1.662 1.662 0 01.186.87v10.641a1.662 1.662 0 01-.187.867 1.171 1.171 0 01-.7.457 5.612 5.612 0 01-1.5.152 5.612 5.612 0 01-1.5-.152 1.229 1.229 0 01-.715-.457 1.583 1.583 0 01-.2-.867v-2.511H6.726v2.508a1.662 1.662 0 01-.187.867 1.171 1.171 0 01-.7.457 5.612 5.612 0 01-1.5.152 5.612 5.612 0 01-1.5-.152 1.229 1.229 0 01-.715-.457 1.583 1.583 0 01-.2-.867zm11.977 3.984v-3.492a5.933 5.933 0 00-.855-3.539 3.047 3.047 0 00-2.613-1.148 3.047 3.047 0 00-2.613 1.148 5.933 5.933 0 00-.855 3.539v3.492zM1.922 114.258a1.617 1.617 0 01.352-1.172 1.617 1.617 0 011.172-.352h7.078a1.174 1.174 0 011.137.68 5.171 5.171 0 01.34 2.18 4.189 4.189 0 01-.328 1.992 1.234 1.234 0 01-1.148.539H6.963v9.378h5.93v-5.719a1.234 1.234 0 01.539-1.148 4.189 4.189 0 011.992-.328 4.112 4.112 0 011.98.328 1.244 1.244 0 01.527 1.148v5.719h6.773v-9.609h-4.735a1.172 1.172 0 01-1.137-.691 5.487 5.487 0 01-.34-2.262 4.633 4.633 0 01.328-2.109 1.218 1.218 0 011.148-.563h8.25a1.623 1.623 0 011.16.352 1.583 1.583 0 01.364 1.168v21.844a1.662 1.662 0 01-.187.867 1.171 1.171 0 01-.7.457 5.612 5.612 0 01-1.5.152 5.612 5.612 0 01-1.5-.152 1.229 1.229 0 01-.715-.457 1.583 1.583 0 01-.2-.867v-2.273H6.726v2.273a1.662 1.662 0 01-.187.867 1.171 1.171 0 01-.7.457 5.612 5.612 0 01-1.5.152 5.612 5.612 0 01-1.5-.152 1.229 1.229 0 01-.715-.457 1.583 1.583 0 01-.2-.867zm0-61.078a1.583 1.583 0 01.2-.867 1.229 1.229 0 01.715-.457 5.612 5.612 0 011.5-.152 5.612 5.612 0 011.5.152 1.171 1.171 0 01.7.457 1.662 1.662 0 01.188.867v1.312l22.009 2.367a1.807 1.807 0 01.914.328 1.467 1.467 0 01.469.844 7.546 7.546 0 01.141 1.664 5.248 5.248 0 01-.352 2.238 1.961 1.961 0 01-1.172.973l-11.039 3.75 11.039 3.8a1.952 1.952 0 011.172.984 5.409 5.409 0 01.352 2.273 7.38 7.38 0 01-.141 1.65 1.4 1.4 0 01-.469.82 1.883 1.883 0 01-.914.316L6.726 78.773v1.172a1.662 1.662 0 01-.187.867 1.171 1.171 0 01-.7.457 5.612 5.612 0 01-1.5.152 5.612 5.612 0 01-1.5-.152 1.229 1.229 0 01-.715-.457 1.583 1.583 0 01-.2-.867v-9.234a1.583 1.583 0 01.2-.867 1.229 1.229 0 01.715-.457 5.612 5.612 0 011.5-.152 5.612 5.612 0 011.5.152 1.171 1.171 0 01.7.457 1.662 1.662 0 01.188.867v2.742l13.688-1.242-10.031-3.422a1.4 1.4 0 01-.82-.633 3.222 3.222 0 01-.281-1.57 4.609 4.609 0 01.223-1.688 1.083 1.083 0 01.715-.656l10.2-3.445-13.687-1.266v2.414a1.662 1.662 0 01-.187.867 1.171 1.171 0 01-.7.457 5.612 5.612 0 01-1.5.152 5.612 5.612 0 01-1.5-.152 1.229 1.229 0 01-.715-.457 1.583 1.583 0 01-.2-.867zm0-25.266a1.617 1.617 0 01.352-1.172 1.617 1.617 0 011.172-.352h7.078a1.174 1.174 0 011.137.68 5.171 5.171 0 01.34 2.18 4.189 4.189 0 01-.328 1.992 1.234 1.234 0 01-1.148.539H6.963v9.375h5.93v-5.719a1.234 1.234 0 01.539-1.148 4.189 4.189 0 011.992-.328 4.112 4.112 0 011.98.328 1.244 1.244 0 01.527 1.148v5.719h6.773v-9.609h-4.735a1.172 1.172 0 01-1.137-.691 5.487 5.487 0 01-.34-2.262 4.633 4.633 0 01.328-2.109 1.218 1.218 0 011.148-.563h8.25a1.623 1.623 0 011.16.352 1.583 1.583 0 01.364 1.171v21.844a1.662 1.662 0 01-.187.867 1.171 1.171 0 01-.7.457 5.612 5.612 0 01-1.5.152 5.612 5.612 0 01-1.5-.152 1.229 1.229 0 01-.715-.457 1.583 1.583 0 01-.2-.867v-2.273H6.726v2.273a1.662 1.662 0 01-.187.867 1.171 1.171 0 01-.7.457 5.612 5.612 0 01-1.5.152 5.612 5.612 0 01-1.5-.152 1.229 1.229 0 01-.715-.457 1.583 1.583 0 01-.2-.867zM0 9.328q0-4.523 2.2-6.926a7.884 7.884 0 016.117-2.4 7.134 7.134 0 015.121 1.77 11.585 11.585 0 012.871 5.426l2.016.141a1 1 0 01.855.562 4.25 4.25 0 01.27 1.8 4.25 4.25 0 01-.27 1.8 1 1 0 01-.855.562l-4.9.281q-1.031.047-1.2-.727l-.469-2.414a4.7 4.7 0 00-1.16-2.508 3.113 3.113 0 00-2.285-.82 3.056 3.056 0 00-2.414.926 4 4 0 00-.82 2.73 9.947 9.947 0 00.7 3.586h2.165a1.234 1.234 0 011.148.539 4.189 4.189 0 01.328 1.992 5.171 5.171 0 01-.34 2.18 1.174 1.174 0 01-1.137.68H3.492a1.516 1.516 0 01-1.43-.961A19.294 19.294 0 010 9.328zm22.942.375a7.18 7.18 0 01.34-2.6 1.167 1.167 0 011.137-.8h4.078a1.167 1.167 0 011.137.8 7.18 7.18 0 01.34 2.6 7.18 7.18 0 01-.34 2.6 1.167 1.167 0 01-1.137.8h-4.075a1.167 1.167 0 01-1.137-.8 7.18 7.18 0 01-.343-2.6z" fill="#ff4e41" opacity=".2"/>
</svg>
