<svg xmlns="http://www.w3.org/2000/svg" viewBox="0 0 20 20">
  <path data-name="Rectangle 207" d="M0 0h20v20H0z" fill="transparent"/>
  <path data-name="Path 70" d="M7.554 13.946L4.311 10.7A1.053 1.053 0 014 9.95a1.051 1.051 0 01.311-.75 1.048 1.048 0 01.75-.311 1.052 1.052 0 01.75.311L8.3 11.7l6.385-6.385a1.053 1.053 0 01.751-.312 1.053 1.053 0 01.75.312 1.055 1.055 0 01.31.75 1.057 1.057 0 01-.31.75L9.05 13.95a1.052 1.052 0 01-.75.311 1.054 1.054 0 01-.746-.315z" fill="rgba(252,87,59,.5)"/>
</svg>
