<svg xmlns="http://www.w3.org/2000/svg" viewBox="0 0 683.468 475.329">
  <path d="M585.783 475.329l1.978-67.976c1.965-48.322 4-83.178-3.394-110.759-10.677-39.844-32.38-63.582-50.389-81.764-23.449-22.18-44.8-40.545-51.914-67.107-7.937-29.622 7.139-63.218 38.8-71.7 1.429-.384 2.831-.573 4.241-.861a332.4 332.4 0 00-240.308-26.3C172.197 79.033 88.626 163.35 54.44 266.281c7.633-1.785 14.8-3.547 20.847-5.167 33.7-9.03 84.8-27.113 84.8-27.113 17.094-5.669 25.98 19.3 9.176 26.01 0 0-16.917 6.72-36.061 12.943L267.56 475.329H151.394L41.626 318.864a332.3 332.3 0 007.238 138.64q2.422 9.04 5.3 17.825h-39.2q-1.181-4.044-2.277-8.132C-40.274 269.542 77.445 65.651 275.103 12.689c159.666-42.783 323.4 25.8 408.365 157.935v83.054a331.452 331.452 0 00-70.933-112.927 256.21 256.21 0 0111.045 32.563c8.761 32.691 12.488 71.1 6.422 122l-12.835 180.015zm-147.043 0l-54.374-77.506-5.41 77.506h-27.923l6.927-115.146-87.073-124.127c-17.639 3.632-34.626 6-34.626 6-17.648 3.628-22.726-23.468-5.072-27.109 0 0 54.31-10.161 85.977-18.645 33.7-9.03 84.807-27.116 84.807-27.116 17.1-5.671 25.987 19.3 9.173 26.01 0 0-16.937 6.726-36.066 12.946l177.4 267.19z" fill="#edebe5"/>
</svg>
