<svg xmlns="http://www.w3.org/2000/svg" viewBox="0 0 1000 1000">
  <path data-name="Path 10" d="M71.07 499.986c0 169.784 98.664 316.505 241.734 386.036l-204.6-560.6A427.31 427.31 0 0071.07 499.986zm718.469-21.643c0-53.01-19.042-89.723-35.37-118.3-21.744-35.332-42.123-65.253-42.123-100.585 0-39.43 29.9-76.133 72.027-76.133 1.9 0 3.7.236 5.556.343a427.327 427.327 0 00-289.641-112.6c-149.846 0-281.678 76.883-358.371 193.335 10.063.3 19.547.514 27.6.514 44.863 0 114.309-5.444 114.309-5.444 23.121-1.363 25.847 32.6 2.75 35.332 0 0-23.236 2.734-49.091 4.089L393.383 763.5l93.865-281.522-66.827-183.1c-23.1-1.355-44.978-4.089-44.978-4.089-23.113-1.355-20.4-36.7 2.71-35.332 0 0 70.835 5.444 112.977 5.444 44.856 0 114.31-5.444 114.31-5.444 23.14-1.363 25.857 32.6 2.753 35.332 0 0-23.285 2.734-49.091 4.089l155 461.089L756.886 617c18.54-59.328 32.653-101.938 32.653-138.659zm-282.026 59.164L378.822 911.469a429.121 429.121 0 00263.6-6.839 37.638 37.638 0 01-3.055-5.91L507.513 537.507zM876.345 294.2a329.352 329.352 0 012.89 44.106c0 43.527-8.129 92.457-32.614 153.635L715.606 870.753C843.12 796.39 928.887 658.237 928.887 500a426.657 426.657 0 00-52.542-205.8zM499.988 0C224.3 0 0 224.293 0 499.986 0 775.716 224.3 1000 499.988 1000S1000 775.716 1000 499.986C999.988 224.293 775.665 0 499.988 0zm0 977.083c-263.045 0-477.063-214.025-477.063-477.1 0-263.051 214.009-477.06 477.063-477.06 263.034 0 477.037 214.009 477.037 477.06 0 263.071-214 477.1-477.037 477.1z" fill="#fc573b" opacity=".25"/>
</svg>
